HIERARCHY
ROOT Hips
{
  OFFSET -35.6603 100.479 63.9497
  CHANNELS 6 Xposition Yposition Zposition Zrotation Xrotation Yrotation
  JOINT ToSpine
  {
    OFFSET -2.69724 7.43032 -0.144315
    CHANNELS 3 Zrotation Xrotation Yrotation
    JOINT Spine
    {
      OFFSET -0.0310711 10.7595 1.96963
      CHANNELS 3 Zrotation Xrotation Yrotation
      JOINT Spine1
      {
        OFFSET 13.1342 3.43533 0.764692
        CHANNELS 3 Zrotation Xrotation Yrotation
        JOINT Neck
        {
          OFFSET 29.8703 7.82586 -0.130764
          CHANNELS 3 Zrotation Xrotation Yrotation
          JOINT Head
          {
            OFFSET 9.52751 0.295786 -0.907742
            CHANNELS 3 Zrotation Xrotation Yrotation
            End Site
            {
              OFFSET 16.4037 0.713936 2.7358
            }
          }
        }
        JOINT LeftShoulder
        {
          OFFSET 27.5574 4.95586 2.47156
          CHANNELS 3 Zrotation Xrotation Yrotation
          JOINT LeftArm
          {
            OFFSET 1.20734 -0.998971 20.1238
            CHANNELS 3 Zrotation Xrotation Yrotation
            JOINT LeftForeArm
            {
              OFFSET 26.8049 -0.0536703 -0.155908
              CHANNELS 3 Zrotation Xrotation Yrotation
              JOINT LeftHand
              {
                OFFSET 26.6817 0 0.320147
                CHANNELS 3 Zrotation Xrotation Yrotation
                End Site
                {
                  OFFSET 18.6119 0 0.382219
                }
              }
            }
          }
        }
        JOINT RightShoulder
        {
          OFFSET 27.5927 4.71444 -2.65209
          CHANNELS 3 Zrotation Xrotation Yrotation
          JOINT RightArm
          {
            OFFSET 2.83739 -1.17114 -18.7564
            CHANNELS 3 Zrotation Xrotation Yrotation
            JOINT RightForeArm
            {
              OFFSET 28.839 -0.0548439 1.22491
              CHANNELS 3 Zrotation Xrotation Yrotation
              JOINT RightHand
              {
                OFFSET 26.5114 0 -0.101894
                CHANNELS 3 Zrotation Xrotation Yrotation
                End Site
                {
                  OFFSET 18.2168 0 0
                }
              }
            }
          }
        }
      }
    }
  }
  JOINT LeftUpLeg
  {
    OFFSET -4.76168 -1.9167 -10.2353
    CHANNELS 3 Zrotation Xrotation Yrotation
    JOINT LeftLeg
    {
      OFFSET 2.55951 -42.0585 -8.02213
      CHANNELS 3 Zrotation Xrotation Yrotation
      JOINT LeftFoot
      {
        OFFSET 3.16357 -42.5282 -3.95426
        CHANNELS 3 Zrotation Xrotation Yrotation
        JOINT LeftToeBase
        {
          OFFSET 0.346054 -6.02161 12.8035
          CHANNELS 3 Zrotation Xrotation Yrotation
          End Site
          {
            OFFSET 0.134235 -1.35082 5.13018
          }
        }
      }
    }
  }
  JOINT RightUpLeg
  {
    OFFSET -4.94151 -1.41743 10.6446
    CHANNELS 3 Zrotation Xrotation Yrotation
    JOINT RightLeg
    {
      OFFSET -2.56294 -42.0364 -7.94377
      CHANNELS 3 Zrotation Xrotation Yrotation
      JOINT RightFoot
      {
        OFFSET -3.0952 -42.555 -4.02241
        CHANNELS 3 Zrotation Xrotation Yrotation
        JOINT RightToeBase
        {
          OFFSET -0.0828122 -6.13587 12.8035
          CHANNELS 3 Zrotation Xrotation Yrotation
          End Site
          {
            OFFSET -0.131328 -1.35082 5.13018
          }
        }
      }
    }
  }
}
MOTION
Frames:	17
Frame Time:	0.0333333
-35.7058 100.618 63.9947 70.0888 -22.4588 49.1782 -70.1915 0 88.8779 111.23 67.5113 -33.4925 2.18287 13.9987 19.3475 -115.471 14.9591 138.378 -161.926 68.3696 -163.951 0.502834 -15.4693 -20.15 -63.1367 17.0884 -130.591 21.9791 9.50926 -67.1575 0.420957 0.00057553 0.35866 -0.747959 3.35605 38.4597 -93.7149 -12.5201 47.0764 -52.691 8.13929 83.5976 0.58676 0.000331362 0.0646654 -8.68588 48.0287 74.0054 -0.866958 40.7971 7.73538 3.35374 -13.8784 -1.21701 -2.20852 2.60268 4.48384 5.58197 -4.21983 121.137 170.385 59.8153 -176.852 -15.747 -16.9545 1.16748 0.896061 -25.4925 -34.0686 
-35.3044 100.158 63.7566 70.3442 -20.7461 43.7511 -70.1915 0 88.8779 111.103 66.548 -33.2143 2.17167 14.0371 15.7041 -114.678 15.0511 139.599 -160.832 68.2168 -164.139 0.573864 -14.9229 -19.8401 -63.8236 16.2967 -132.718 23.5018 9.00147 -69.6163 0.420957 0.00057553 0.35866 -0.729596 3.34952 37.9846 -92.0914 -14.1343 43.8428 -54.6169 5.14083 86.2674 0.58676 0.000331362 0.0646654 -15.5328 46.1707 82.9582 -1.17221 42.372 6.23374 3.28539 -14.1001 -1.22798 -1.13195 0.120681 5.30474 6.45758 -2.43282 108.153 169.825 54.6735 -170.382 -17.4196 -13.9666 1.37752 -0.652074 -31.2766 -37.8983 
-34.4315 99.8245 63.5135 72.103 -19.4942 38.5586 -70.1915 0 88.8779 112.168 66.1097 -34.0497 2.10745 14.9123 12.6576 -114.471 16.8917 142.764 -165.146 68.7555 -159.341 0.711054 -13.614 -20.0135 -63.6807 16.8751 -134.191 25.2955 7.59566 -73.7541 0.420957 0.00057553 0.35866 -0.647529 3.48816 34.8414 -90.8339 -17.8519 41.3266 -52.9298 0.950191 88.6326 0.58676 0.000331362 0.0646654 -24.2979 44.3257 92.0017 -1.25448 43.143 6.00542 2.96313 -14.7637 -1.26392 -0.651229 -0.884395 5.49501 1.73759 3.84355 92.0431 168.802 58.8162 -166.427 -15.7817 -15.0707 1.29044 -1.83518 -33.4129 -41.173 
-33.2867 99.7581 63.1054 72.6765 -18.0724 32.6356 -70.1915 0 88.8779 109.17 66.267 -32.5234 2.34198 15.3713 10.7465 -113.109 17.6899 143.984 -164.214 69.3714 -158.721 0.796846 -12.8726 -20.0491 -62.3056 19.7171 -134.841 25.7136 5.35283 -78.4042 0.420957 0.00057553 0.35866 -0.623948 3.72242 32.9009 -88.4728 -20.9331 40.5953 -48.4359 -1.93352 91.8675 0.58676 0.000331362 0.0646654 -32.3734 39.6915 99.6397 -1.10526 42.3096 6.67706 2.2583 -14.4808 -1.24673 -0.236956 -1.83846 5.90854 -6.10629 4.8426 82.668 163.053 71.8064 -160.878 -11.741 -17.7519 1.28048 0.46301 -31.0218 -29.9176 
-31.8403 99.9042 62.6831 71.7967 -17.4094 26.4106 -70.1915 0 88.8779 99.6828 67.6248 -24.2275 3.24721 16.0853 8.84729 -111.138 17.658 144.672 -161.086 69.6015 -159.828 0.745547 -13.2688 -20.6803 -59.9322 23.0903 -133.945 26.5933 3.12844 -83.3549 0.420957 0.00057553 0.35866 -0.599543 3.93573 31.2404 -86.5068 -24.4833 40.572 -42.8195 -4.29085 94.3077 0.58676 0.000331362 0.0646654 -37.9074 34.2147 105.57 -0.882896 40.5805 7.52062 1.98248 -12.5834 -1.12569 1.02268 -3.80009 4.5392 -15.511 4.50444 74.8921 60.4876 85.4923 -49.0741 -3.43036 -13.5764 1.26031 0.43621 -27.0828 -35.5281 
-30.4016 99.6537 62.1561 71.5324 -16.5306 20.7315 -70.1915 0 88.8779 93.3267 68.2492 -17.7227 3.65821 17.0499 6.14951 -111.028 19.5566 146.735 -163.822 70.4864 -156.688 0.794427 -12.697 -21.5282 -57.4463 24.2045 -133.848 27.219 0.342996 -87.8688 0.420957 0.00057553 0.35866 -0.58401 4.35618 29.0581 -86.3815 -28.4767 40.6303 -34.1275 -5.33467 97.6139 0.58676 0.000331362 0.0646654 -41.607 27.7776 106.825 -0.804774 40.6045 8.14168 1.97307 -10.8678 -1.0176 1.90876 -5.42205 4.14347 -26.072 5.3254 71.2334 9.29002 66.1991 6.37377 5.49143 -1.74953 -0.433394 1.51941 -22.1638 -34.923 
-29.0807 99.5741 61.5588 72.6108 -15.1403 16.0997 -70.1915 0 88.8779 92.4784 68.7985 -16.064 4.41426 18.2793 3.24083 -112.082 21.6618 147.463 -164.219 71.7689 -156.461 0.805845 -12.4858 -22.0549 -55.7184 25.3219 -134.103 28.1109 -1.05492 -91.9121 0.420957 0.00057553 0.35866 -0.523001 4.17728 28.3563 -88.4576 -30.5343 41.1592 -21.2103 -4.25554 100.657 0.58676 0.000331362 0.0646654 -45.3052 21.4057 105.672 -0.915142 41.1792 7.50964 1.68325 -9.59289 -0.926055 2.05012 -5.85544 4.71611 -36.9519 5.83064 70.7627 4.26437 47.8916 20.6728 12.7144 6.27525 -2.71415 3.60082 -10.0274 -31.09 
-28.1852 99.326 61.0298 72.7323 -14.6356 10.592 -70.1915 0 88.8779 88.8088 70.2266 -12.6581 4.68238 19.9251 2.48997 -114.882 25.5298 151.475 -171.868 73.0192 -151.195 0.645528 -13.2781 -25.0068 -55.9729 24.9086 -131.898 28.344 -3.47024 -95.4372 0.420957 0.00057553 0.35866 -0.417197 3.84553 27.0464 -91.2638 -31.95 42.9545 -6.5425 -1.43493 102.287 0.58676 0.000331362 0.0646654 -46.8269 16.2542 107.005 -1.34838 42.9397 5.1003 0.612728 -7.05489 -0.685941 2.68324 -6.79587 3.60138 -44.5218 6.74506 75.9848 4.1083 33.5917 28.2113 15.6334 13.0441 -4.68871 3.17149 -12.479 -30.1409 
-27.6175 98.7718 60.4652 72.3621 -14.7097 5.65249 -70.1915 0 88.8779 85.991 71.2106 -8.73481 4.67103 21.3929 0.979371 -118.474 28.9982 156.878 177.916 73.3688 -145.469 0.648604 -12.9222 -26.9292 -56.6052 24.8865 -131.133 28.2354 -4.52225 -97.618 0.420957 0.00057553 0.35866 -0.503199 4.04747 28.4033 -92.8942 -29.6864 46.5946 4.41138 0.984652 102.033 0.58676 0.000331362 0.0646654 -46.0318 13.7097 109.123 -2.51225 47.566 0.442409 -0.964666 -4.64037 -0.362188 4.2782 -9.71036 2.56142 -48.016 5.84945 80.2019 3.32934 28.149 15.2502 4.57434 15.6608 -2.2303 2.1278 -20.0738 -12.3298 
-27.3454 98.0412 59.7921 72.0071 -14.3473 3.07008 -70.1915 0 88.8779 85.968 71.6717 -6.20809 4.80454 22.0682 0.958251 -121.932 31.7251 162.708 168.91 73.1544 -139.735 0.536587 -13.3077 -28.8781 -58.1164 26.3384 -130.644 28.2934 -5.23232 -98.8634 0.420957 0.00057553 0.35866 -0.677955 4.60408 30.2214 -94.6455 -25.293 51.6242 9.80844 2.0233 101.175 0.58676 0.000331362 0.0646654 -44.4177 13.5559 108.898 -4.31276 53.0411 -6.43397 -7.79849 -4.89893 0.190903 4.56413 -10.3056 2.71251 -48.8354 4.40805 81.307 2.22481 26.1648 2.39364 -1.75177 9.09979 -0.209416 1.77141 -14.3299 1.81748 
-27.2319 97.3935 59.0314 71.8237 -12.9848 0.751405 -70.1915 0 88.8779 88.8091 71.8484 -8.09033 3.64624 22.0052 2.19507 -124.735 33.506 165.678 167.419 73.862 -139.737 0.343515 -14.1147 -29.8609 -59.3519 27.8361 -130.992 28.7624 -5.66226 -99.4372 0.420957 0.00057553 0.35866 -0.781419 4.71267 31.9575 -97.0818 -20.0287 56.8919 13.3078 2.38329 99.6539 0.58676 0.000331362 0.0646654 -42.7219 13.3823 106.758 -6.75531 57.7882 -15.812 -8.42072 -6.12972 0.07468 4.3762 -10.6028 6.49589 -49.5665 1.6565 81.2274 1.83899 25.8078 10.6716 -2.34415 4.735 0.190555 2.45815 -14.7404 -16.7502 
-27.2897 96.3011 58.2286 71.1003 -13.263 -1.61008 -70.1915 0 88.8779 89.527 72.3777 -8.09887 2.39693 22.1406 3.80094 -127.893 34.8635 168.153 165.292 74.3577 -139.436 0.273333 -14.4333 -29.8875 -60.7631 28.412 -132.659 29.0685 -5.95483 -99.8164 0.420957 0.00057553 0.35866 -0.879907 4.81563 33.5839 -100.435 -14.2317 62.7847 17.2602 2.76288 98.534 0.58676 0.000331362 0.0646654 -41.3419 14.8394 104.775 -7.71512 60.4681 -17.8098 -8.94966 -9.87127 -0.493764 4.24121 -10.5734 7.9135 -48.2724 -1.40056 81.098 1.49177 27.5402 13.9443 -2.33767 -0.920882 0.496289 2.46001 -12.0051 -16.094 
-27.4629 95.2229 57.3252 70.0922 -14.5445 -3.14089 -70.1915 0 88.8779 88.6052 73.0487 -6.47949 1.57215 22.1201 6.63378 -131.438 36.1232 171.199 162.104 74.6068 -137.578 0.174468 -14.8823 -30.0989 -62.7235 28.031 -134.437 30.3257 -6.49228 -100.183 0.420957 0.00057553 0.35866 -0.89849 4.66295 34.6243 -104.733 -9.25688 69.6758 20.3804 2.89133 97.4611 0.58676 0.000331362 0.0646654 -40.7313 17.8473 102.323 -7.11135 60.5045 -12.8145 -8.69612 -8.70727 -0.311017 7.17825 -15.7807 9.4115 -45.6477 -2.53254 81.8557 1.24022 30.7727 16.3503 -1.32961 -7.89941 0.849509 2.8445 -4.22773 -19.2269 
-27.5944 94.2448 56.5651 69.3803 -15.2275 -4.00822 -70.1915 0 88.8779 85.836 73.5083 -4.27047 1.16338 21.6149 10.1914 -132.856 37.3269 172.188 157.756 75.0906 -133.318 0.0591597 -15.4873 -29.9921 -65.0619 26.4548 -136.963 30.1036 -6.44678 -100.202 0.420957 0.00057553 0.35866 -1.0134 4.90822 35.8731 -110.018 -4.88961 75.5847 23.3212 2.74828 96.0868 0.58676 0.000331362 0.0646654 -40.6062 21.3803 99.6368 -5.30781 58.6457 -4.71167 -6.20661 -5.30533 0.000299379 8.15445 -17.3431 8.01436 -41.8264 -2.58682 86.1583 2.11884 35.8637 11.9636 -1.47542 -10.3033 1.0058 2.864 -4.13985 -18.8169 
-27.4936 93.3511 55.5496 69.3136 -14.7603 -4.60275 -70.1915 0 88.8779 86.6908 73.2114 -6.29058 0.469204 20.5048 12.6544 -132.797 38.2733 170.56 155.404 76.1441 -130.908 0.142005 -15.4208 -28.5203 -66.7579 24.6989 -141.176 29.8451 -6.12379 -99.7762 0.420957 0.00057553 0.35866 -1.07717 5.00856 36.6472 -115.007 -2.54478 80.2357 20.9567 1.92042 94.741 0.58676 0.000331362 0.0646654 -41.1855 23.8285 97.4538 -3.02251 55.6708 4.59611 -4.12327 -4.03259 -0.0146458 4.28869 -9.91206 3.0714 -38.8014 -3.40774 87.9092 2.96077 40.9902 9.52134 -3.3964 -10.2382 1.08334 2.73665 -8.391 -19.2038 
-27.176 92.6974 54.5412 70.1052 -13.1442 -4.59283 -70.1915 0 88.8779 88.891 72.4743 -9.34301 0.264634 19.3889 13.509 -131.03 39.0782 167.012 150.823 77.0633 -125.036 0.150819 -15.9167 -26.3882 -68.5726 22.79 -145.211 29.7541 -5.71028 -99.1225 0.420957 0.00057553 0.35866 -1.16315 5.29871 36.9621 -119.765 -0.125775 82.2615 19.9914 1.51292 93.8963 0.58676 0.000331362 0.0646654 -42.9631 25.4516 96.0175 -1.74587 50.9138 7.54754 -2.83361 -1.39137 0.129303 2.00471 -5.39093 3.45709 -38.0064 -5.29854 87.9859 3.09713 44.2548 7.8358 -4.50213 -11.0704 1.15771 2.56288 -9.9998 -18.0603 
-26.7126 92.0053 53.5508 69.765 -11.6205 -4.05448 -70.1915 0 88.8779 86.9701 71.9484 -7.51366 0.194116 18.549 14.0402 -129.157 39.3981 162.038 151.338 78.8034 -124.706 0.316392 -15.7487 -23.5856 -69.0269 22.0495 -150.576 27.4033 -4.48465 -97.8335 0.420957 0.00057553 0.35866 -1.14458 5.07545 37.8377 -123.906 3.33104 84.3334 19.4917 1.25338 93.2905 0.58676 0.000331362 0.0646654 -43.8242 27.2924 94.9799 -1.60404 45.4653 4.93356 -2.61398 0.76781 0.320266 1.68767 -4.29302 1.7977 -36.8339 -6.04323 88.5428 3.29864 46.5643 7.08921 -3.78677 -12.1243 1.18477 2.65719 -10.9874 -19.8883 
